<?xml version="1.0" standalone="no"?>
<!DOCTYPE svg PUBLIC "-//W3C//DTD SVG 20010904//EN"
 "http://www.w3.org/TR/2001/REC-SVG-20010904/DTD/svg10.dtd">
<svg version="1.0" xmlns="http://www.w3.org/2000/svg"
 width="300.000000pt" height="300.000000pt" viewBox="0 0 300.000000 300.000000"
 preserveAspectRatio="xMidYMid meet">
<metadata>
Created by potrace 1.11, written by Peter Selinger 2001-2013
</metadata>
<g transform="translate(0.000000,300.000000) scale(0.100000,-0.100000)"
fill="#000000" stroke="none">
<path d="M0 1500 l0 -1500 1500 0 1500 0 0 1500 0 1500 -1500 0 -1500 0 0
-1500z m2060 850 c0 -21 -27 -221 -35 -257 l-5 -23 -340 0 -340 0 0 -205 0
-205 300 0 300 0 0 -145 0 -145 -300 0 -300 0 0 -220 0 -220 365 0 366 0 -3
-147 -3 -148 -565 0 -565 0 -3 868 -2 867 565 0 c555 0 565 0 565 -20z"/>
</g>
</svg>
